# xmcd
#
# Track frame offsets:
#	150
#	13704
#	25759
#	44740
#	59770
#	75178
#	88701
#	99969
#	114209
#	130281
#
# Disc length: 1943 seconds
#
# Revision: 1
# Processed by: cddbd v1.5.2PL0 Copyright (c) Steve Scherf et al.
# Submitted via: audiograbber 1.83.01
#
DISCID=7507950a
DTITLE=Gene Watson - Reflections
DYEAR=1978
DGENRE=Country
TTITLE0=One Sided Conversation
TTITLE1=Take Off Them Shoes
TTITLE2=Farewell Party
TTITLE3=Let's Give It Up Or Get It On
TTITLE4=For The Memories
TTITLE5=I Wonder How It Is In Colorado
TTITLE6=Pick The Wildwood Flower
TTITLE7=I Know What It's Like In Her Arms
TTITLE8=Mama Sold Roses
TTITLE9=I Don't Know How To Tell Her
EXTD=
EXTT0=
EXTT1=
EXTT2=
EXTT3=
EXTT4=
EXTT5=
EXTT6=
EXTT7=
EXTT8=
EXTT9=
PLAYORDER=
